<svg height="45px" viewBox="0 -37 487.87672 487" width="45px" xmlns="http://www.w3.org/2000/svg"><path d="m244.003906 32.4375c-2.207031 0-4-1.792969-4-4v-24c0-2.207031 1.792969-4 4-4 2.210938 0 4 1.792969 4 4v24c0 2.207031-1.789062 4-4 4zm0 0" fill="#f6bb42"/><path d="m252.003906 16.4375h-16c-2.207031 0-4-1.792969-4-4s1.792969-4 4-4h16c2.210938 0 4 1.792969 4 4s-1.789062 4-4 4zm0 0" fill="#f6bb42"/><path d="m271.878906 118.277344h-8v134.160156h-12c0 4.113281-3.183594 7.410156-7.199218 7.832031-4.019532-.421875-7.203126-3.71875-7.203126-7.832031h-12v-134.160156h-8c-61.597656 4.871094-194.078124 20.722656-175.992187 62.160156 0 0 36.210937 120.007812 52.210937 168.007812l-4.21875-.007812h310.410157l-5.695313.007812c16-48 53.6875-168.007812 53.6875-168.007812 18.078125-41.4375-114.402344-57.277344-176-62.160156zm0 0" fill="#ed5565"/><path d="m88.023438 364.453125c-3.355469 0-6.480469-2.117187-7.59375-5.472656-10.359376-31.117188-41.464844-92.980469-60.046876-129.941407-10.289062-20.472656-13.6875-27.3125-14.578124-29.976562-.167969-.3125-.460938-.832031-.589844-1.167969-8.144532-18.59375-6.703125-39.265625 4.015625-56.527343 23.488281-37.839844 95.640625-38.464844 172.039062-39.121094 16.679688-.144532 33.929688-.289063 50.496094-.839844.089844-.007812.175781-.007812.273437-.007812 4.285157 0 7.839844 3.40625 7.984376 7.734374.148437 4.417969-3.304688 8.113282-7.730469 8.257813-16.757813.558594-34.109375.71875-50.886719.855469-68.703125.59375-139.746094 1.199218-158.59375 31.558594-7.894531 12.730468-8.941406 27.984374-2.871094 41.851562.097656.125.289063.492188.472656.878906.105469.214844.359376.863282.441407 1.09375.902343 2.519532 7.183593 15.007813 13.832031 28.21875 18.773438 37.34375 50.199219 99.855469 60.933594 132.070313 1.394531 4.191406-.871094 8.726562-5.0625 10.128906-.847656.273437-1.703125.40625-2.535156.40625zm0 0" fill="#edab37"/><path d="m399.863281 364.453125c-.832031 0-1.691406-.132813-2.53125-.40625-4.183593-1.402344-6.453125-5.929687-5.0625-10.128906 10.734375-32.207031 42.167969-94.726563 60.9375-132.070313 6.640625-13.210937 12.917969-25.699218 13.703125-27.867187.183594-.566407.414063-1.15625.6875-1.710938.070313-.144531.382813-.726562.464844-.855469 5.953125-13.625 4.902344-28.878906-2.992188-41.609374-18.726562-30.167969-111.289062-31.148438-158.464843-31.558594-16.777344-.152344-34.128907-.296875-50.886719-.863282-4.417969-.152343-7.871094-3.839843-7.722656-8.265624.152344-4.414063 4.019531-8.09375 8.265625-7.71875 16.550781.550781 33.808593.703124 50.488281.847656 76.335938.671875 148.433594 1.296875 171.910156 39.128906 10.722656 17.261719 12.160156 37.933594 3.9375 56.710938-.121094.265624-.519531 1.054687-.664062 1.304687-.742188 2.34375-4.144532 9.183594-14.433594 29.65625-18.582031 36.960937-49.6875 98.832031-60.046875 129.945313-1.109375 3.34375-4.238281 5.460937-7.589844 5.460937zm0 0" fill="#edab37"/><path d="m243.878906 84.4375c-15.511718 0-28-12.558594-28-28 0-15.4375 12.488282-28 28-28 15.445313 0 28 12.5625 28 28 0 15.441406-12.554687 28-28 28zm0 0" fill="#ffce54"/><path d="m323.878906 348.765625-24-16-24 16-31.199218-31.128906-31.210938 31.128906-24-16-24 16-32-31.917969-32 31.917969v3.671875h286.410156v-3.671875l-32-31.917969zm0 0" fill="#ffce54"/><path d="m79.878906 364.4375h328v32h-328zm0 0" fill="#f6bb42"/><path d="m243.878906 124.4375c4.40625 0 8 3.59375 8 8 0 4.394531-3.59375 8-8 8-4.480468 0-8-3.605469-8-8 0-4.40625 3.527344-8 8-8zm0 0" fill="#ffce54"/><path d="m243.878906 164.4375c4.40625 0 8 3.59375 8 8 0 4.394531-3.59375 8-8 8-4.480468 0-8-3.605469-8-8 0-4.40625 3.527344-8 8-8zm0 0" fill="#ffce54"/><path d="m243.878906 244.4375c4.40625 0 8 3.59375 8 8 0 4.394531-3.59375 8-8 8-4.480468 0-8-3.605469-8-8 0-4.40625 3.527344-8 8-8zm0 0" fill="#ed5565"/><path d="m243.878906 204.4375c4.40625 0 8 3.59375 8 8 0 4.394531-3.59375 8-8 8-4.480468 0-8-3.605469-8-8 0-4.40625 3.527344-8 8-8zm0 0" fill="#ffce54"/><path d="m243.878906 124.4375c-4.480468 0-8 3.59375-8 8 0 4.394531 3.519532 8 8 8 4.40625 0 8-3.605469 8-8 0-4.40625-3.59375-8-8-8zm0 56c4.40625 0 8-3.605469 8-8 0-4.40625-3.59375-8-8-8-4.480468 0-8 3.59375-8 8 0 4.394531 3.527344 8 8 8zm0 40c4.40625 0 8-3.605469 8-8 0-4.40625-3.59375-8-8-8-4.480468 0-8 3.59375-8 8 0 4.394531 3.527344 8 8 8zm-20 120.015625v-236.015625c0-1.359375.167969-2.71875.40625-4 1.832032-9.128906 9.832032-16 19.59375-16 10.320313 0 18.878906 7.839844 19.917969 17.921875.082031.71875.082031 1.359375.082031 2.078125v236.007812s-15.59375-15.125-20-15.125c-4.472656.007813-20 15.132813-20 15.132813zm0 0" fill="#f6bb42"/><g fill="#ffce54"><path d="m243.878906 244.4375c4.40625 0 8 3.59375 8 8 0 4.394531-3.59375 8-8 8-4.480468 0-8-3.605469-8-8 0-4.40625 3.527344-8 8-8zm0 0"/><path d="m355.796875 316.445312c-4.398437 0-8-3.605468-8-8 0-4.40625 3.601563-8 8-8 4.488281 0 8 3.59375 8 8 0 4.394532-3.4375 7.921876-7.917969 8zm0 0"/><path d="m243.796875 316.445312c-4.398437 0-8-3.605468-8-8 0-4.40625 3.601563-8 8-8 4.488281 0 8 3.59375 8 8 0 4.394532-3.4375 7.921876-7.917969 8zm0 0"/><path d="m131.878906 300.445312c4.40625 0 8 3.59375 8 8 0 4.394532-3.59375 8-8 8-4.480468 0-8-3.605468-8-8 0-4.40625 3.527344-8 8-8zm0 0"/><path d="m235.796875 364.4375h-155.917969c-4.480468 0-8-3.605469-8-8 0-3.277344 2-6.160156 4.878906-7.359375.960938-.40625 2-.640625 3.121094-.640625h328c4.40625 0 8 3.59375 8 8 0 4.394531-3.59375 8-8 8zm0 0"/><path d="m111.878906 372.4375c4.40625 0 8 3.59375 8 8 0 4.394531-3.59375 8-8 8-4.480468 0-8-3.605469-8-8 0-4.40625 3.527344-8 8-8zm0 0"/><path d="m151.878906 372.4375c4.40625 0 8 3.59375 8 8 0 4.394531-3.59375 8-8 8-4.480468 0-8-3.605469-8-8 0-4.40625 3.527344-8 8-8zm0 0"/><path d="m191.878906 372.4375c4.40625 0 8 3.59375 8 8 0 4.394531-3.59375 8-8 8-4.480468 0-8-3.605469-8-8 0-4.40625 3.527344-8 8-8zm0 0"/><path d="m375.878906 372.4375c4.40625 0 8 3.59375 8 8 0 4.394531-3.59375 8-8 8-4.480468 0-8-3.605469-8-8 0-4.40625 3.527344-8 8-8zm0 0"/><path d="m335.878906 372.4375c4.40625 0 8 3.59375 8 8 0 4.394531-3.59375 8-8 8-4.480468 0-8-3.605469-8-8 0-4.40625 3.527344-8 8-8zm0 0"/><path d="m295.878906 372.4375c4.40625 0 8 3.59375 8 8 0 4.394531-3.59375 8-8 8-4.480468 0-8-3.605469-8-8 0-4.40625 3.527344-8 8-8zm0 0"/></g><path d="m251.796875 364.4375 8 16-8 16h-16l-8-16 8-16zm0 0" fill="#ed5565"/><path d="m407.878906 412.4375h-328c-4.480468 0-8-3.605469-8-8 0-4.40625 3.519532-8 8-8h328c4.40625 0 8 3.59375 8 8 0 4.394531-3.59375 8-8 8zm0 0" fill="#ffce54"/><path d="m244.246094 60.4375c-2.207032 0-4.039063-1.792969-4.039063-4s1.75-4 3.949219-4h.089844c2.199218 0 4 1.792969 4 4s-1.800782 4-4 4zm0 0" fill="#f6bb42"/><path d="m260.246094 60.4375c-2.207032 0-4.039063-1.792969-4.039063-4s1.75-4 3.949219-4h.089844c2.199218 0 4 1.792969 4 4s-1.800782 4-4 4zm0 0" fill="#f6bb42"/><path d="m228.246094 60.4375c-2.207032 0-4.039063-1.792969-4.039063-4s1.75-4 3.949219-4h.089844c2.199218 0 4 1.792969 4 4s-1.800782 4-4 4zm0 0" fill="#f6bb42"/><path d="m390.828125 349.605469-32-32c-1.558594-1.558594-4.09375-1.558594-5.65625 0l-29.679687 29.679687-21.269532-14.175781c-1.34375-.886719-3.097656-.886719-4.441406 0l-21.269531 14.175781-29.683594-29.679687c-1.558594-1.558594-4.09375-1.558594-5.65625 0l-29.679687 29.679687-21.269532-14.175781c-1.34375-.886719-3.097656-.886719-4.441406 0l-21.269531 14.175781-29.683594-29.679687c-1.558594-1.558594-4.09375-1.558594-5.65625 0l-32 32c-1.558594 1.5625-1.558594 4.097656 0 5.65625 1.5625 1.5625 4.097656 1.5625 5.65625 0l29.167969-29.167969 29.167968 29.167969c.105469.105469.234376.144531.355469.234375.199219.167968.40625.300781.628907.421875.25.128906.488281.222656.753906.304687.214844.0625.441406.105469.671875.128906.144531.015626.28125.085938.421875.085938.144531 0 .273437-.0625.410156-.078125.230469-.023437.449219-.074219.671875-.136719.273437-.082031.519531-.175781.777344-.3125.117187-.0625.246093-.070312.367187-.152344l21.78125-14.519531 21.785156 14.519531c.082032.054688.175782.03125.265626.082032 1.136718.648437 2.472656.726562 3.640624.175781.167969-.082031.300782-.203125.46875-.3125.226563-.152344.480469-.25.671876-.449219l29.167968-29.167968 29.167969 29.167968c.105469.105469.234375.144532.347656.222656.199219.167969.414063.3125.644531.433594.242188.136719.480469.222656.738282.304688.222656.0625.449218.105468.679687.128906.144531.015625.28125.085938.421875.085938.144532 0 .273438-.0625.410156-.078126.230469-.023437.449219-.074218.671876-.136718.273437-.082032.519531-.175782.777343-.3125.117188-.0625.246094-.070313.367188-.152344l21.785156-14.519531 21.78125 14.519531c.082031.054688.175781.03125.265625.082031 1.136719.644531 2.472656.726563 3.640625.175781.167969-.082031.300781-.203124.46875-.3125.226563-.152343.480469-.25.675781-.449218l29.167969-29.167969 29.167969 29.167969c.78125.785156 1.804687 1.167968 2.832031 1.167968 1.023437 0 2.046875-.390624 2.832031-1.167968 1.550782-1.542969 1.550782-4.070313-.019531-5.640625zm0 0" fill="#ffce54"/></svg>