<svg version="1.0" xmlns="http://www.w3.org/2000/svg"
 width="67" height="75" viewBox="0 0 805.000000 965.000000"
 preserveAspectRatio="xMidYMid meet">
<metadata>
Created by potrace 1.15, written by Peter Selinger 2001-2017
</metadata>
<g transform="translate(0.000000,965.000000) scale(0.100000,-0.100000)"
fill="#000000" stroke="none">
<path d="M2045 6970 c-235 -74 -388 -143 -575 -259 -255 -158 -478 -370 -696
-661 -191 -254 -304 -508 -358 -798 -28 -155 -32 -202 -16 -202 6 0 65 53 133
118 133 128 327 269 327 237 0 -3 -16 -29 -36 -58 -111 -162 -221 -483 -279
-820 -56 -327 -57 -556 -6 -902 43 -288 81 -428 195 -715 23 -59 79 -167 123
-240 16 -25 39 -65 53 -88 14 -23 28 -42 32 -42 10 0 16 67 22 240 8 216 45
446 75 464 4 3 13 -36 19 -87 37 -299 85 -528 143 -675 56 -141 186 -396 260
-507 40 -60 75 -112 78 -115 4 -3 33 -39 66 -80 69 -87 304 -326 420 -427 203
-177 483 -362 603 -398 27 -8 30 -15 -71 190 -38 77 -80 165 -94 195 -36 80
-96 260 -89 268 4 3 34 -25 68 -64 249 -279 593 -599 863 -799 61 -45 160
-112 220 -150 61 -37 126 -78 145 -90 65 -42 238 -135 250 -135 13 0 182 96
315 178 212 133 484 341 650 498 17 16 102 97 189 179 88 83 205 203 262 267
57 65 105 114 108 110 15 -25 -161 -452 -262 -636 -18 -33 258 109 370 190
256 186 561 474 712 674 135 178 298 475 370 672 40 113 91 327 106 453 16
134 40 288 45 293 6 6 21 -35 39 -105 22 -86 35 -216 42 -425 4 -104 11 -188
16 -188 14 0 107 149 153 245 167 351 255 704 286 1145 21 300 -34 692 -146
1045 -54 171 -85 238 -196 419 -16 27 -28 51 -25 53 12 12 239 -170 360 -289
55 -54 101 -98 103 -98 8 0 1 123 -12 215 -36 257 -162 536 -355 789 -25 32
-54 71 -64 85 -49 65 -139 165 -242 267 -274 272 -605 461 -1011 578 -51 14
-101 26 -111 26 -12 0 -34 -22 -60 -57 -22 -32 -51 -67 -64 -79 -14 -13 -186
-75 -433 -157 -225 -75 -563 -188 -750 -251 -187 -63 -360 -117 -385 -120 -40
-6 -98 12 -505 149 -253 85 -604 203 -780 261 -179 60 -330 116 -342 127 -12
11 -32 44 -44 73 -22 51 -24 54 -58 53 -20 -1 -90 -18 -156 -39z m495 -664
c79 -28 162 -65 218 -98 l33 -20 -18 -28 c-10 -16 -38 -50 -63 -77 -25 -26
-64 -74 -88 -105 -65 -85 -64 -84 -124 -55 -85 41 -204 70 -264 64 -115 -12
-151 -61 -141 -191 7 -91 22 -146 66 -241 17 -37 31 -71 31 -77 0 -11 -84
-116 -105 -130 -14 -11 -50 35 -94 122 -78 154 -106 269 -104 435 1 102 5 131
27 194 49 141 102 182 301 235 11 3 72 3 135 1 91 -3 131 -9 190 -29z m3150 9
c172 -57 239 -162 248 -388 6 -154 -19 -281 -82 -417 -32 -68 -97 -171 -106
-168 -5 2 -33 31 -64 66 -38 43 -53 67 -49 79 4 9 17 39 31 67 14 28 31 69 39
91 19 51 29 241 15 277 -27 66 -168 82 -307 34 -44 -16 -84 -32 -90 -36 -5 -4
-20 -11 -31 -14 -19 -6 -37 12 -125 116 -56 68 -109 131 -117 140 -19 23 -9
36 70 82 117 70 234 96 408 92 68 -2 124 -9 160 -21z m-2168 -413 c60 -31 126
-80 238 -177 85 -74 158 -133 161 -132 4 1 45 39 93 83 109 104 228 194 308
236 63 33 64 33 208 33 135 0 149 -2 195 -25 46 -23 135 -103 135 -122 0 -9
126 -201 184 -278 43 -58 179 -211 306 -345 45 -47 88 -104 105 -138 27 -56
28 -62 22 -170 -9 -191 -66 -314 -293 -637 -47 -66 -178 -193 -218 -211 -63
-28 -132 -32 -214 -15 -40 9 -88 16 -105 16 l-32 -1 35 -30 c120 -106 251
-247 266 -286 20 -52 15 -141 -10 -198 -49 -107 -98 -206 -121 -239 -14 -20
-25 -39 -25 -42 0 -3 -10 -19 -22 -37 -92 -130 -164 -187 -237 -187 -53 0
-109 27 -270 130 -220 142 -236 157 -250 221 -15 69 -14 211 2 232 6 8 69 44
140 78 162 78 178 97 219 251 43 162 42 162 -82 70 -71 -53 -120 -83 -151 -90
-127 -31 -364 -22 -439 17 -21 11 -75 49 -120 85 -45 36 -86 63 -91 60 -11 -6
-7 -22 33 -164 38 -135 54 -152 224 -235 146 -70 144 -68 144 -180 0 -87 -17
-156 -48 -188 -42 -45 -357 -250 -422 -275 -72 -27 -164 6 -230 82 -71 84
-166 245 -224 380 -49 115 -52 196 -10 260 28 42 110 126 222 230 35 32 61 60
58 63 -3 3 -38 -3 -78 -13 -108 -27 -200 -24 -268 8 -103 48 -264 249 -420
523 -9 17 -32 68 -51 115 -32 81 -33 91 -34 216 0 97 4 138 15 160 25 48 60
98 88 125 60 57 202 208 258 274 61 73 101 130 228 320 112 169 166 197 378
192 116 -3 118 -4 200 -45z m466 -2743 c211 -94 432 -235 473 -302 51 -85 -4
-274 -148 -506 -102 -165 -101 -165 -96 -29 5 116 -8 205 -28 192 -6 -4 -17
-21 -25 -38 -23 -52 -88 -141 -106 -144 -11 -2 -18 6 -22 25 -15 65 -81 133
-129 133 -28 0 -105 -86 -113 -126 -3 -19 -12 -34 -20 -34 -21 0 -65 55 -100
123 -16 33 -35 62 -41 64 -14 5 -23 -77 -23 -206 0 -118 -5 -120 -62 -24 -18
30 -46 76 -61 102 -113 189 -164 380 -122 461 14 26 66 74 125 113 14 9 43 29
65 45 98 68 312 171 358 172 15 0 49 -9 75 -21z"/>
<path d="M4417 5214 c-4 -4 -7 -39 -7 -79 0 -97 -25 -282 -62 -450 -46 -215
-45 -198 -17 -190 56 18 119 83 198 206 42 66 42 67 104 78 113 22 155 45 259
141 28 26 98 58 162 74 33 9 61 18 64 21 12 11 -16 25 -98 46 -111 29 -271 31
-385 5 -44 -10 -86 -19 -93 -20 -7 0 -32 37 -55 83 -41 82 -56 99 -70 85z
m413 -209 c0 -17 -33 -66 -59 -88 -66 -55 -136 -58 -199 -10 l-35 26 23 19
c29 23 56 23 87 -2 36 -28 54 -25 83 15 14 19 34 36 45 38 32 7 55 7 55 2z"/>
<path d="M3367 5173 c-13 -21 -33 -59 -45 -85 -12 -27 -24 -48 -26 -48 -3 0
-42 9 -88 20 -132 32 -227 35 -343 12 -162 -33 -192 -51 -112 -73 124 -33 158
-51 237 -126 48 -46 119 -78 210 -95 l56 -11 58 -88 c65 -99 144 -179 177
-179 19 0 20 3 14 53 -4 28 -20 111 -36 182 -22 102 -59 388 -59 463 0 23 -20
12 -43 -25z m-284 -188 c4 -8 18 -27 30 -41 l22 -25 34 26 c58 42 130 25 100
-23 -37 -59 -124 -66 -200 -15 -42 28 -75 76 -63 94 9 15 66 2 77 -16z"/>
</g>
</svg>